<?xml version="1.0" encoding="UTF-8"?>
<svg xmlns="http://www.w3.org/2000/svg" version="1.1" viewBox="0 0 60 60">
  <defs>
    <style>
      .cls-1 {
        fill: #079b11;
      }
    </style>
  </defs>
  <!-- Generator: Adobe Illustrator 28.6.0, SVG Export Plug-In . SVG Version: 1.2.0 Build 709)  -->
  <g>
    <g id="Layer_1">
      <g>
        <path class="cls-1" d="M37.73,25.49c0-1.82,0-3.63-.01-5.45-.01-1.96-1.24-3.59-3.11-4.18-.58-.18-1.16-.35-1.74-.52-5.72-1.68-11.45-3.36-17.17-5.05-.68-.2-1.37-.24-2.06-.09-2.12.44-3.53,2.17-3.53,4.34,0,5.54,0,11.08,0,16.62,0,4.75,0,9.5,0,14.26,0,2.23,1.48,4.02,3.67,4.34,1.51.22,3.05.06,4.58.07-.78-.42-1.02-1.07-1-1.95.05-2.46.01-4.93.02-7.4,0-3.15,2.05-5.74,5.12-6.47,3.65-.87,7.39,1.74,7.88,5.47.08.62.07,1.24.07,1.85,0,2.24-.02,4.48.02,6.72.01.86-.3,1.45-1.09,1.78h7.25c.77-.15,1.17-.6,1.23-1.39,0-.09,0-.18,0-.27,0-7.34,0-14.68,0-22.02,0-.23-.02-.45-.14-.66ZM20.25,30.95c-.48,0-.97,0-1.45,0s-.94,0-1.41,0c-.85-.01-1.48-.64-1.48-1.45s.63-1.44,1.48-1.45c.95,0,1.9,0,2.86,0,.85,0,1.48.64,1.48,1.45s-.63,1.44-1.48,1.45ZM20.25,25.13c-.48,0-.97,0-1.45,0s-.94,0-1.41,0c-.85-.01-1.48-.64-1.48-1.45,0-.82.63-1.44,1.48-1.45.95,0,1.9,0,2.86,0,.85,0,1.48.64,1.48,1.45,0,.81-.63,1.44-1.48,1.45ZM30.4,30.95c-.47,0-.94,0-1.41,0s-.94,0-1.41,0c-.87-.01-1.51-.64-1.5-1.47.01-.81.65-1.42,1.5-1.43.94,0,1.87,0,2.81,0,.87,0,1.51.64,1.5,1.47-.01.81-.65,1.42-1.5,1.43ZM30.46,25.13c-.5.01-1,0-1.5,0-.47,0-.94,0-1.41,0-.84-.02-1.47-.65-1.46-1.47,0-.8.63-1.43,1.45-1.44.97-.01,1.93-.01,2.9,0,.84,0,1.47.65,1.46,1.46,0,.8-.63,1.42-1.45,1.44Z"/>
        <path class="cls-1" d="M48.11,29.01c-1.29-.48-2.6-.89-3.9-1.33-2.16-.73-4.32-1.46-6.48-2.19,0,.15,0,.3,0,.45,0,7.39,0,14.77,0,22.16,0,.85-.32,1.42-1.11,1.72,3.3,0,6.6.02,9.89.01,2.32,0,4.27-1.97,4.28-4.29.01-4.21,0-8.41,0-12.62,0-1.67-1.12-3.32-2.69-3.91ZM44.2,42.57c-.94,0-1.87,0-2.81,0-.85,0-1.49-.62-1.49-1.44,0-.83.63-1.46,1.51-1.47.47,0,.94,0,1.41,0,.47,0,.94,0,1.41,0,.85.01,1.49.62,1.49,1.44,0,.83-.63,1.46-1.51,1.47ZM44.23,36.76c-.48,0-.97,0-1.45,0s-.94,0-1.41,0c-.85-.01-1.48-.64-1.48-1.45s.63-1.44,1.48-1.45c.95,0,1.9,0,2.86,0,.85,0,1.48.64,1.48,1.45s-.63,1.44-1.48,1.45Z"/>
      </g>
    </g>
  </g>
</svg>